<mxfile host="drawio-plugin" modified="2021-05-12T07:48:21.030Z" agent="5.0 (Windows NT 6.2; Win64; x64) AppleWebKit/537.36 (KHTML, like Gecko) Chrome/84.0.4147.105 Safari/537.36" version="14.6.6" etag="DY00x0EsXnN-005K44xo" type="embed"><diagram id="hcV4guKs5UnGT7SlEPSO" name="Page-1"><mxGraphModel dx="956" dy="698" grid="1" gridSize="10" guides="1" tooltips="1" connect="1" arrows="1" fold="1" page="1" pageScale="1" pageWidth="850" pageHeight="1100" math="0" shadow="0"><root><mxCell id="0"/><mxCell id="1" parent="0"/><mxCell id="22" style="edgeStyle=orthogonalEdgeStyle;rounded=0;orthogonalLoop=1;jettySize=auto;html=1;exitX=0.25;exitY=1;exitDx=0;exitDy=0;entryX=1;entryY=0.5;entryDx=0;entryDy=0;" parent="1" source="2" target="4" edge="1"><mxGeometry relative="1" as="geometry"/></mxCell><mxCell id="25" style="edgeStyle=orthogonalEdgeStyle;rounded=0;orthogonalLoop=1;jettySize=auto;html=1;exitX=0.5;exitY=1;exitDx=0;exitDy=0;entryX=0.913;entryY=0.003;entryDx=0;entryDy=0;entryPerimeter=0;" parent="1" source="2" target="5" edge="1"><mxGeometry relative="1" as="geometry"><Array as="points"><mxPoint x="350" y="280"/><mxPoint x="350" y="410"/><mxPoint x="250" y="410"/><mxPoint x="250" y="440"/></Array></mxGeometry></mxCell><mxCell id="28" style="edgeStyle=orthogonalEdgeStyle;rounded=0;orthogonalLoop=1;jettySize=auto;html=1;exitX=1;exitY=0.5;exitDx=0;exitDy=0;entryX=0;entryY=0.25;entryDx=0;entryDy=0;" parent="1" source="2" target="6" edge="1"><mxGeometry relative="1" as="geometry"/></mxCell><mxCell id="2" value="&lt;p style=&quot;margin: 0px ; margin-top: 4px ; text-align: center&quot;&gt;&lt;b&gt;&lt;font face=&quot;Verdana&quot;&gt;GameLoop&lt;/font&gt;&lt;/b&gt;&lt;/p&gt;&lt;hr size=&quot;1&quot;&gt;&lt;p style=&quot;margin: 0px ; margin-left: 4px&quot;&gt;&lt;font face=&quot;Verdana&quot;&gt;+ Init();&lt;br&gt;+ Start();&lt;/font&gt;&lt;/p&gt;&lt;p style=&quot;margin: 0px ; margin-left: 4px&quot;&gt;&lt;font face=&quot;Verdana&quot;&gt;+ Stop();&lt;/font&gt;&lt;/p&gt;" style="verticalAlign=top;align=left;overflow=fill;fontSize=12;fontFamily=Helvetica;html=1;" parent="1" vertex="1"><mxGeometry x="310" y="200" width="90" height="80" as="geometry"/></mxCell><mxCell id="18" style="edgeStyle=orthogonalEdgeStyle;rounded=0;orthogonalLoop=1;jettySize=auto;html=1;exitX=1;exitY=0.5;exitDx=0;exitDy=0;" parent="1" source="3" target="2" edge="1"><mxGeometry relative="1" as="geometry"/></mxCell><mxCell id="3" value="&lt;p style=&quot;margin: 0px ; margin-top: 4px ; text-align: center&quot;&gt;&lt;b&gt;&lt;font face=&quot;Verdana&quot;&gt;HID&lt;/font&gt;&lt;/b&gt;&lt;/p&gt;&lt;hr size=&quot;1&quot;&gt;&lt;p style=&quot;margin: 0px ; margin-left: 4px&quot;&gt;&lt;font face=&quot;Verdana&quot;&gt;+ getInput(KeyCode)&lt;/font&gt;&lt;br&gt;&lt;/p&gt;" style="verticalAlign=top;align=left;overflow=fill;fontSize=12;fontFamily=Helvetica;html=1;" parent="1" vertex="1"><mxGeometry x="42" y="212.5" width="140" height="55" as="geometry"/></mxCell><mxCell id="4" value="&lt;p style=&quot;margin: 0px ; margin-top: 4px ; text-align: center&quot;&gt;&lt;b&gt;&lt;font face=&quot;Verdana&quot;&gt;Collider&lt;/font&gt;&lt;/b&gt;&lt;/p&gt;&lt;hr size=&quot;1&quot;&gt;&lt;p style=&quot;margin: 0px ; margin-left: 4px&quot;&gt;&lt;font face=&quot;Verdana&quot;&gt;+ Collider(HTMLElement);&lt;/font&gt;&lt;/p&gt;&lt;p style=&quot;margin: 0px ; margin-left: 4px&quot;&gt;&lt;font face=&quot;Verdana&quot;&gt;+ bool hasCollided(Collider C)&lt;/font&gt;&lt;/p&gt;" style="verticalAlign=top;align=left;overflow=fill;fontSize=12;fontFamily=Helvetica;html=1;" parent="1" vertex="1"><mxGeometry x="40" y="320" width="190" height="70" as="geometry"/></mxCell><mxCell id="5" value="&lt;p style=&quot;margin: 0px ; margin-top: 4px ; text-align: center&quot;&gt;&lt;b&gt;&lt;font face=&quot;Verdana&quot;&gt;Physics&lt;/font&gt;&lt;/b&gt;&lt;/p&gt;&lt;hr size=&quot;1&quot;&gt;&lt;p style=&quot;margin: 0px ; margin-left: 4px&quot;&gt;&lt;font face=&quot;Verdana&quot;&gt;&amp;nbsp;+ Constructor(x,y,hVelocity,vVelocity,hAcceleration,vAcceleration)&amp;nbsp;&lt;/font&gt;&lt;/p&gt;&lt;p style=&quot;margin: 0px ; margin-left: 4px&quot;&gt;&lt;font face=&quot;Verdana&quot;&gt;&amp;nbsp;+ setPosition(x,y)&lt;/font&gt;&lt;/p&gt;&lt;p style=&quot;margin: 0px ; margin-left: 4px&quot;&gt;&lt;font face=&quot;Verdana&quot;&gt;&amp;nbsp;+ setHorizontalPosition(x)&lt;/font&gt;&lt;/p&gt;&lt;p style=&quot;margin: 0px ; margin-left: 4px&quot;&gt;&lt;font face=&quot;Verdana&quot;&gt;&amp;nbsp;+ setVerticalPosition(y)&lt;/font&gt;&lt;/p&gt;&lt;p style=&quot;margin: 0px ; margin-left: 4px&quot;&gt;&lt;font face=&quot;Verdana&quot;&gt;&amp;nbsp;+ setHorizontalVelocity(horizontalVelocity)&lt;/font&gt;&lt;/p&gt;&lt;p style=&quot;margin: 0px ; margin-left: 4px&quot;&gt;&lt;font face=&quot;Verdana&quot;&gt;&amp;nbsp;+ setVerticalVelocity(verticalVelocity)&amp;nbsp;&lt;/font&gt;&lt;/p&gt;&lt;p style=&quot;margin: 0px ; margin-left: 4px&quot;&gt;&lt;font face=&quot;Verdana&quot;&gt;&amp;nbsp;+ setVerticalAcceleration(vAvvelleration)&lt;/font&gt;&lt;/p&gt;&lt;p style=&quot;margin: 0px ; margin-left: 4px&quot;&gt;&lt;font face=&quot;Verdana&quot;&gt;&amp;nbsp;+ setHorizontalAcceleration(hAcceleration)&lt;/font&gt;&lt;/p&gt;" style="verticalAlign=top;align=left;overflow=fill;fontSize=12;fontFamily=Helvetica;html=1;" parent="1" vertex="1"><mxGeometry x="40" y="440" width="340" height="160" as="geometry"/></mxCell><mxCell id="26" style="edgeStyle=orthogonalEdgeStyle;rounded=0;orthogonalLoop=1;jettySize=auto;html=1;entryX=0.573;entryY=0;entryDx=0;entryDy=0;entryPerimeter=0;" parent="1" source="6" target="11" edge="1"><mxGeometry relative="1" as="geometry"><Array as="points"><mxPoint x="761" y="380"/><mxPoint x="761" y="380"/></Array></mxGeometry></mxCell><mxCell id="27" style="edgeStyle=orthogonalEdgeStyle;rounded=0;orthogonalLoop=1;jettySize=auto;html=1;exitX=0.25;exitY=1;exitDx=0;exitDy=0;entryX=0.5;entryY=0;entryDx=0;entryDy=0;" parent="1" source="6" target="10" edge="1"><mxGeometry relative="1" as="geometry"/></mxCell><mxCell id="6" value="&lt;p style=&quot;margin: 0px ; margin-top: 4px ; text-align: center&quot;&gt;&lt;b&gt;&lt;font face=&quot;Verdana&quot;&gt;ResourceManager&lt;/font&gt;&lt;/b&gt;&lt;/p&gt;&lt;hr size=&quot;1&quot;&gt;&lt;p style=&quot;margin: 0px ; margin-left: 4px&quot;&gt;&lt;font face=&quot;Verdana&quot;&gt;+ _GameObjectContainer [ Game objects ]&lt;/font&gt;&lt;/p&gt;&lt;p style=&quot;margin: 0px ; margin-left: 4px&quot;&gt;&lt;font face=&quot;Verdana&quot;&gt;+ _SoundEffectContainer [ Sound Effect ]&lt;/font&gt;&lt;/p&gt;&lt;hr size=&quot;1&quot;&gt;&lt;p style=&quot;margin: 0px ; margin-left: 4px&quot;&gt;&lt;font face=&quot;Verdana&quot;&gt;+ loadObject();&lt;/font&gt;&lt;/p&gt;&lt;p style=&quot;margin: 0px ; margin-left: 4px&quot;&gt;&lt;font face=&quot;Verdana&quot;&gt;+ getObject();&lt;/font&gt;&lt;/p&gt;&lt;p style=&quot;margin: 0px ; margin-left: 4px&quot;&gt;&lt;font face=&quot;Verdana&quot;&gt;+ removeObject();&lt;/font&gt;&lt;/p&gt;&lt;p style=&quot;margin: 0px ; margin-left: 4px&quot;&gt;&lt;font face=&quot;Verdana&quot;&gt;+ loadSound();&lt;/font&gt;&lt;/p&gt;&lt;p style=&quot;margin: 0px ; margin-left: 4px&quot;&gt;&lt;font face=&quot;Verdana&quot;&gt;+ playSound();&lt;/font&gt;&lt;/p&gt;&lt;p style=&quot;margin: 0px ; margin-left: 4px&quot;&gt;&lt;font face=&quot;Verdana&quot;&gt;+ stopSound();&lt;/font&gt;&lt;/p&gt;" style="verticalAlign=top;align=left;overflow=fill;fontSize=12;fontFamily=Helvetica;html=1;" parent="1" vertex="1"><mxGeometry x="539" y="198" width="270" height="170" as="geometry"/></mxCell><mxCell id="8" style="edgeStyle=orthogonalEdgeStyle;rounded=0;orthogonalLoop=1;jettySize=auto;html=1;exitX=0.5;exitY=1;exitDx=0;exitDy=0;" parent="1" source="2" target="2" edge="1"><mxGeometry relative="1" as="geometry"/></mxCell><mxCell id="10" value="&lt;p style=&quot;margin: 0px ; margin-top: 4px ; text-align: center&quot;&gt;&lt;b&gt;&lt;font face=&quot;Verdana&quot;&gt;GameObjects&lt;/font&gt;&lt;/b&gt;&lt;/p&gt;&lt;hr size=&quot;1&quot;&gt;&lt;p style=&quot;margin: 0px ; margin-left: 4px&quot;&gt;&lt;font face=&quot;Verdana&quot;&gt;+ getPos(HTMLELement) : (x,y)&lt;/font&gt;&lt;/p&gt;&lt;p style=&quot;margin: 0px ; margin-left: 4px&quot;&gt;&lt;font face=&quot;Verdana&quot;&gt;+ moveObjectt(HTMLElement) : (x,y)&lt;/font&gt;&lt;/p&gt;&lt;p style=&quot;margin: 0px ; margin-left: 4px&quot;&gt;&lt;font face=&quot;Verdana&quot;&gt;+ getBoundaries(HTMLElement) : Boundaries&lt;/font&gt;&lt;/p&gt;&lt;p style=&quot;margin: 0px ; margin-left: 4px&quot;&gt;&lt;font face=&quot;Verdana&quot;&gt;+ createObject();&lt;/font&gt;&lt;/p&gt;" style="verticalAlign=top;align=left;overflow=fill;fontSize=12;fontFamily=Helvetica;html=1;" parent="1" vertex="1"><mxGeometry x="400" y="420" width="284" height="96" as="geometry"/></mxCell><mxCell id="11" value="&lt;p style=&quot;margin: 0px ; margin-top: 4px ; text-align: center&quot;&gt;&lt;b&gt;&lt;font face=&quot;Verdana&quot;&gt;SoundEffect&lt;/font&gt;&lt;/b&gt;&lt;/p&gt;&lt;hr size=&quot;1&quot;&gt;&lt;p style=&quot;margin: 0px ; margin-left: 4px&quot;&gt;&lt;font face=&quot;Verdana&quot;&gt;+ createSound();&lt;/font&gt;&lt;/p&gt;" style="verticalAlign=top;align=left;overflow=fill;fontSize=12;fontFamily=Helvetica;html=1;" parent="1" vertex="1"><mxGeometry x="696" y="428" width="113" height="50" as="geometry"/></mxCell><mxCell id="15" value="&lt;p style=&quot;margin: 0px ; margin-top: 4px ; text-align: center&quot;&gt;&lt;br&gt;&lt;b&gt;SpælDemo&lt;/b&gt;&lt;/p&gt;" style="verticalAlign=top;align=left;overflow=fill;fontSize=12;fontFamily=Helvetica;html=1;" parent="1" vertex="1"><mxGeometry x="285" y="70" width="140" height="60" as="geometry"/></mxCell></root></mxGraphModel></diagram></mxfile>